<mxfile host="app.diagrams.net" modified="2023-09-18T15:52:52.038Z" agent="Mozilla/5.0 (X11; Linux x86_64) AppleWebKit/537.36 (KHTML, like Gecko) Chrome/117.0.0.0 Safari/537.36" etag="S3DcoS3GfQt8q0MdozYy" version="21.7.5" type="github">
  <diagram name="Page-1" id="vC63wHf21_1-IpedcLhs">
    <mxGraphModel dx="879" dy="506" grid="1" gridSize="10" guides="1" tooltips="1" connect="1" arrows="1" fold="1" page="1" pageScale="1" pageWidth="850" pageHeight="1100" math="0" shadow="0">
      <root>
        <mxCell id="0" />
        <mxCell id="1" parent="0" />
        <mxCell id="qNZ7FqDkXa0m-c6XOhDS-5" value="Infrastructure" style="shape=trapezoid;perimeter=trapezoidPerimeter;whiteSpace=wrap;html=1;fixedSize=1;fillColor=#fff2cc;gradientColor=#ffd966;strokeColor=#d6b656;" vertex="1" parent="1">
          <mxGeometry x="210" y="624" width="440" height="60" as="geometry" />
        </mxCell>
        <mxCell id="qNZ7FqDkXa0m-c6XOhDS-1" value="" style="ellipse;whiteSpace=wrap;html=1;aspect=fixed;labelBackgroundColor=default;strokeColor=#006600;fontFamily=Helvetica;fontSize=12;fontColor=#ffffff;fillColor=#00CC00;" vertex="1" parent="1">
          <mxGeometry x="342.25" y="659" width="7" height="7" as="geometry" />
        </mxCell>
        <mxCell id="qNZ7FqDkXa0m-c6XOhDS-2" value="" style="ellipse;whiteSpace=wrap;html=1;aspect=fixed;labelBackgroundColor=default;strokeColor=#A50040;fontFamily=Helvetica;fontSize=12;fontColor=#ffffff;fillColor=#DE73D7;" vertex="1" parent="1">
          <mxGeometry x="320" y="639" width="10" height="10" as="geometry" />
        </mxCell>
        <mxCell id="qNZ7FqDkXa0m-c6XOhDS-7" value="" style="ellipse;whiteSpace=wrap;html=1;aspect=fixed;labelBackgroundColor=default;strokeColor=#A50040;fontFamily=Helvetica;fontSize=12;fontColor=#ffffff;fillColor=#DE73D7;" vertex="1" parent="1">
          <mxGeometry x="520" y="637.5" width="10" height="10" as="geometry" />
        </mxCell>
        <mxCell id="qNZ7FqDkXa0m-c6XOhDS-8" value="" style="ellipse;whiteSpace=wrap;html=1;aspect=fixed;labelBackgroundColor=default;strokeColor=#A50040;fontFamily=Helvetica;fontSize=12;fontColor=#ffffff;fillColor=#DE73D7;" vertex="1" parent="1">
          <mxGeometry x="284.25" y="657.5" width="10" height="10" as="geometry" />
        </mxCell>
        <mxCell id="qNZ7FqDkXa0m-c6XOhDS-9" value="" style="ellipse;whiteSpace=wrap;html=1;aspect=fixed;labelBackgroundColor=default;strokeColor=#A50040;fontFamily=Helvetica;fontSize=12;fontColor=#ffffff;fillColor=#DE73D7;" vertex="1" parent="1">
          <mxGeometry x="567" y="662" width="10" height="10" as="geometry" />
        </mxCell>
        <mxCell id="qNZ7FqDkXa0m-c6XOhDS-10" value="" style="ellipse;whiteSpace=wrap;html=1;aspect=fixed;labelBackgroundColor=default;strokeColor=#A50040;fontFamily=Helvetica;fontSize=12;fontColor=#ffffff;fillColor=#DE73D7;" vertex="1" parent="1">
          <mxGeometry x="493.5" y="662" width="10" height="10" as="geometry" />
        </mxCell>
        <mxCell id="qNZ7FqDkXa0m-c6XOhDS-11" value="" style="ellipse;whiteSpace=wrap;html=1;aspect=fixed;labelBackgroundColor=default;strokeColor=#A50040;fontFamily=Helvetica;fontSize=12;fontColor=#ffffff;fillColor=#DE73D7;" vertex="1" parent="1">
          <mxGeometry x="365" y="643" width="10" height="10" as="geometry" />
        </mxCell>
        <mxCell id="qNZ7FqDkXa0m-c6XOhDS-13" value="" style="ellipse;whiteSpace=wrap;html=1;aspect=fixed;labelBackgroundColor=default;strokeColor=#006600;fontFamily=Helvetica;fontSize=12;fontColor=#ffffff;fillColor=#00CC00;" vertex="1" parent="1">
          <mxGeometry x="600" y="646" width="7" height="7" as="geometry" />
        </mxCell>
        <mxCell id="qNZ7FqDkXa0m-c6XOhDS-14" value="" style="ellipse;whiteSpace=wrap;html=1;aspect=fixed;labelBackgroundColor=default;strokeColor=#006600;fontFamily=Helvetica;fontSize=12;fontColor=#ffffff;fillColor=#00CC00;" vertex="1" parent="1">
          <mxGeometry x="480" y="632" width="7" height="7" as="geometry" />
        </mxCell>
        <mxCell id="qNZ7FqDkXa0m-c6XOhDS-15" value="" style="ellipse;whiteSpace=wrap;html=1;aspect=fixed;labelBackgroundColor=default;strokeColor=#006600;fontFamily=Helvetica;fontSize=12;fontColor=#ffffff;fillColor=#00CC00;" vertex="1" parent="1">
          <mxGeometry x="260" y="639" width="7" height="7" as="geometry" />
        </mxCell>
        <mxCell id="qNZ7FqDkXa0m-c6XOhDS-16" value="" style="ellipse;whiteSpace=wrap;html=1;aspect=fixed;labelBackgroundColor=default;strokeColor=#006600;fontFamily=Helvetica;fontSize=12;fontColor=#ffffff;fillColor=#00CC00;" vertex="1" parent="1">
          <mxGeometry x="530" y="672" width="7" height="7" as="geometry" />
        </mxCell>
        <mxCell id="qNZ7FqDkXa0m-c6XOhDS-17" value="" style="ellipse;whiteSpace=wrap;html=1;aspect=fixed;labelBackgroundColor=default;strokeColor=#006600;fontFamily=Helvetica;fontSize=12;fontColor=#ffffff;fillColor=#00CC00;" vertex="1" parent="1">
          <mxGeometry x="560" y="639" width="7" height="7" as="geometry" />
        </mxCell>
        <mxCell id="qNZ7FqDkXa0m-c6XOhDS-22" value="Users" style="shape=trapezoid;perimeter=trapezoidPerimeter;whiteSpace=wrap;html=1;fixedSize=1;fillColor=#dae8fc;gradientColor=#7ea6e0;strokeColor=#6c8ebf;" vertex="1" parent="1">
          <mxGeometry x="185" y="691" width="490" height="50" as="geometry" />
        </mxCell>
        <mxCell id="qNZ7FqDkXa0m-c6XOhDS-29" style="rounded=0;orthogonalLoop=1;jettySize=auto;html=1;exitX=0;exitY=1;exitDx=0;exitDy=0;entryX=0.19;entryY=0.022;entryDx=0;entryDy=0;entryPerimeter=0;fillColor=#a20025;strokeColor=#B80000;" edge="1" parent="1" source="qNZ7FqDkXa0m-c6XOhDS-56" target="qNZ7FqDkXa0m-c6XOhDS-5">
          <mxGeometry relative="1" as="geometry" />
        </mxCell>
        <mxCell id="qNZ7FqDkXa0m-c6XOhDS-30" style="rounded=0;orthogonalLoop=1;jettySize=auto;html=1;exitX=0.141;exitY=1.036;exitDx=0;exitDy=0;entryX=0.372;entryY=0.022;entryDx=0;entryDy=0;entryPerimeter=0;fillColor=#a20025;strokeColor=#B80000;exitPerimeter=0;" edge="1" parent="1" source="qNZ7FqDkXa0m-c6XOhDS-56" target="qNZ7FqDkXa0m-c6XOhDS-5">
          <mxGeometry relative="1" as="geometry" />
        </mxCell>
        <mxCell id="qNZ7FqDkXa0m-c6XOhDS-31" style="edgeStyle=orthogonalEdgeStyle;rounded=0;orthogonalLoop=1;jettySize=auto;html=1;exitX=0.5;exitY=1;exitDx=0;exitDy=0;entryX=0.5;entryY=0;entryDx=0;entryDy=0;fillColor=#a20025;strokeColor=#B80000;" edge="1" parent="1" source="qNZ7FqDkXa0m-c6XOhDS-56" target="qNZ7FqDkXa0m-c6XOhDS-5">
          <mxGeometry relative="1" as="geometry" />
        </mxCell>
        <mxCell id="qNZ7FqDkXa0m-c6XOhDS-32" style="rounded=0;orthogonalLoop=1;jettySize=auto;html=1;exitX=0.85;exitY=1.036;exitDx=0;exitDy=0;entryX=0.625;entryY=0.003;entryDx=0;entryDy=0;entryPerimeter=0;fillColor=#a20025;strokeColor=#B80000;exitPerimeter=0;" edge="1" parent="1" source="qNZ7FqDkXa0m-c6XOhDS-56" target="qNZ7FqDkXa0m-c6XOhDS-5">
          <mxGeometry relative="1" as="geometry" />
        </mxCell>
        <mxCell id="qNZ7FqDkXa0m-c6XOhDS-33" style="edgeStyle=none;rounded=0;orthogonalLoop=1;jettySize=auto;html=1;exitX=1;exitY=1;exitDx=0;exitDy=0;entryX=0.773;entryY=0;entryDx=0;entryDy=0;entryPerimeter=0;fillColor=#a20025;strokeColor=#B80000;" edge="1" parent="1" source="qNZ7FqDkXa0m-c6XOhDS-56" target="qNZ7FqDkXa0m-c6XOhDS-5">
          <mxGeometry relative="1" as="geometry" />
        </mxCell>
        <mxCell id="qNZ7FqDkXa0m-c6XOhDS-58" style="edgeStyle=none;rounded=0;orthogonalLoop=1;jettySize=auto;html=1;exitX=0.25;exitY=1;exitDx=0;exitDy=0;entryX=0.25;entryY=0;entryDx=0;entryDy=0;fillColor=#ffcd28;gradientColor=#ffa500;strokeColor=#d79b00;" edge="1" parent="1" source="qNZ7FqDkXa0m-c6XOhDS-28" target="qNZ7FqDkXa0m-c6XOhDS-56">
          <mxGeometry relative="1" as="geometry" />
        </mxCell>
        <mxCell id="qNZ7FqDkXa0m-c6XOhDS-59" style="edgeStyle=none;rounded=0;orthogonalLoop=1;jettySize=auto;html=1;exitX=0.5;exitY=1;exitDx=0;exitDy=0;entryX=0.5;entryY=0;entryDx=0;entryDy=0;fillColor=#ffcd28;gradientColor=#ffa500;strokeColor=#d79b00;" edge="1" parent="1" source="qNZ7FqDkXa0m-c6XOhDS-28" target="qNZ7FqDkXa0m-c6XOhDS-56">
          <mxGeometry relative="1" as="geometry" />
        </mxCell>
        <mxCell id="qNZ7FqDkXa0m-c6XOhDS-60" style="edgeStyle=none;rounded=0;orthogonalLoop=1;jettySize=auto;html=1;exitX=0.75;exitY=1;exitDx=0;exitDy=0;entryX=0.75;entryY=0;entryDx=0;entryDy=0;fillColor=#ffcd28;gradientColor=#ffa500;strokeColor=#d79b00;" edge="1" parent="1" source="qNZ7FqDkXa0m-c6XOhDS-28" target="qNZ7FqDkXa0m-c6XOhDS-56">
          <mxGeometry relative="1" as="geometry" />
        </mxCell>
        <mxCell id="qNZ7FqDkXa0m-c6XOhDS-28" value="Funding Pool" style="rounded=0;whiteSpace=wrap;html=1;fillColor=#d5e8d4;gradientColor=#97d077;strokeColor=#82b366;fontStyle=1" vertex="1" parent="1">
          <mxGeometry x="369" y="495" width="120" height="60" as="geometry" />
        </mxCell>
        <mxCell id="qNZ7FqDkXa0m-c6XOhDS-37" style="edgeStyle=none;rounded=0;orthogonalLoop=1;jettySize=auto;html=1;exitX=0.8;exitY=0.8;exitDx=0;exitDy=0;exitPerimeter=0;entryX=0.25;entryY=0;entryDx=0;entryDy=0;fillColor=#1ba1e2;strokeColor=#006EAF;" edge="1" parent="1" source="qNZ7FqDkXa0m-c6XOhDS-34" target="qNZ7FqDkXa0m-c6XOhDS-28">
          <mxGeometry relative="1" as="geometry" />
        </mxCell>
        <mxCell id="qNZ7FqDkXa0m-c6XOhDS-34" value="Government&lt;br&gt;&amp;amp;&lt;br&gt;Municipalities" style="ellipse;shape=cloud;whiteSpace=wrap;html=1;fillColor=#e6d0de;gradientColor=#d5739d;strokeColor=#996185;" vertex="1" parent="1">
          <mxGeometry x="229.25" y="390" width="120" height="80" as="geometry" />
        </mxCell>
        <mxCell id="qNZ7FqDkXa0m-c6XOhDS-38" style="edgeStyle=none;rounded=0;orthogonalLoop=1;jettySize=auto;html=1;exitX=0.536;exitY=0.955;exitDx=0;exitDy=0;exitPerimeter=0;entryX=0.5;entryY=0;entryDx=0;entryDy=0;fillColor=#1ba1e2;strokeColor=#006EAF;" edge="1" parent="1" source="qNZ7FqDkXa0m-c6XOhDS-35" target="qNZ7FqDkXa0m-c6XOhDS-28">
          <mxGeometry relative="1" as="geometry" />
        </mxCell>
        <mxCell id="qNZ7FqDkXa0m-c6XOhDS-35" value="Data Annalists" style="ellipse;shape=cloud;whiteSpace=wrap;html=1;fillColor=#e6d0de;gradientColor=#d5739d;strokeColor=#996185;" vertex="1" parent="1">
          <mxGeometry x="365" y="390" width="120" height="80" as="geometry" />
        </mxCell>
        <mxCell id="qNZ7FqDkXa0m-c6XOhDS-39" style="edgeStyle=none;rounded=0;orthogonalLoop=1;jettySize=auto;html=1;exitX=0.31;exitY=0.8;exitDx=0;exitDy=0;exitPerimeter=0;entryX=0.75;entryY=0;entryDx=0;entryDy=0;fillColor=#1ba1e2;strokeColor=#006EAF;" edge="1" parent="1" source="qNZ7FqDkXa0m-c6XOhDS-36" target="qNZ7FqDkXa0m-c6XOhDS-28">
          <mxGeometry relative="1" as="geometry" />
        </mxCell>
        <mxCell id="qNZ7FqDkXa0m-c6XOhDS-36" value="Application&lt;br&gt;Providers" style="ellipse;shape=cloud;whiteSpace=wrap;html=1;fillColor=#e6d0de;gradientColor=#d5739d;strokeColor=#996185;" vertex="1" parent="1">
          <mxGeometry x="503.5" y="390" width="120" height="80" as="geometry" />
        </mxCell>
        <mxCell id="qNZ7FqDkXa0m-c6XOhDS-49" value="" style="curved=1;endArrow=classic;html=1;rounded=0;strokeWidth=11;exitX=0;exitY=0.5;exitDx=0;exitDy=0;fillColor=#d5e8d4;gradientColor=#97d077;strokeColor=#688F51;" edge="1" parent="1">
          <mxGeometry width="50" height="50" relative="1" as="geometry">
            <mxPoint x="192" y="712" as="sourcePoint" />
            <mxPoint x="237.16825049683098" y="450.00707007961046" as="targetPoint" />
            <Array as="points">
              <mxPoint x="127" y="667" />
              <mxPoint x="137" y="497" />
            </Array>
          </mxGeometry>
        </mxCell>
        <mxCell id="qNZ7FqDkXa0m-c6XOhDS-50" value="" style="curved=1;endArrow=classic;html=1;rounded=0;strokeWidth=11;exitX=0;exitY=0.5;exitDx=0;exitDy=0;fillColor=#d5e8d4;strokeColor=#688F51;gradientColor=#97d077;" edge="1" parent="1">
          <mxGeometry width="50" height="50" relative="1" as="geometry">
            <mxPoint x="668.6682504968312" y="712.0000000000005" as="sourcePoint" />
            <mxPoint x="623.5000000000002" y="450.0070700796109" as="targetPoint" />
            <Array as="points">
              <mxPoint x="733.6682504968312" y="667.0000000000005" />
              <mxPoint x="723.6682504968312" y="497.00000000000045" />
            </Array>
          </mxGeometry>
        </mxCell>
        <mxCell id="qNZ7FqDkXa0m-c6XOhDS-53" value="Taxes" style="text;html=1;strokeColor=none;fillColor=none;align=center;verticalAlign=middle;whiteSpace=wrap;rounded=0;rotation=-90;fontStyle=0" vertex="1" parent="1">
          <mxGeometry x="120" y="570" width="60" height="30" as="geometry" />
        </mxCell>
        <mxCell id="qNZ7FqDkXa0m-c6XOhDS-54" value="Services" style="text;html=1;strokeColor=none;fillColor=none;align=center;verticalAlign=middle;whiteSpace=wrap;rounded=0;rotation=-90;fontStyle=0" vertex="1" parent="1">
          <mxGeometry x="660" y="570" width="80" height="30" as="geometry" />
        </mxCell>
        <mxCell id="qNZ7FqDkXa0m-c6XOhDS-56" value="Protocol Fee" style="rounded=0;whiteSpace=wrap;html=1;fillColor=#ffcd28;gradientColor=#ffa500;strokeColor=#d79b00;" vertex="1" parent="1">
          <mxGeometry x="369" y="570" width="120" height="20" as="geometry" />
        </mxCell>
        <mxCell id="qNZ7FqDkXa0m-c6XOhDS-64" value="" style="shape=flexArrow;endArrow=classic;html=1;rounded=0;width=7.3076923076923075;endSize=5.3307692307692305;endWidth=10.650887573964496;fillColor=#ffcd28;gradientColor=#ffa500;strokeColor=#d79b00;" edge="1" parent="1">
          <mxGeometry width="50" height="50" relative="1" as="geometry">
            <mxPoint x="365" y="579.81" as="sourcePoint" />
            <mxPoint x="260" y="580" as="targetPoint" />
          </mxGeometry>
        </mxCell>
        <mxCell id="qNZ7FqDkXa0m-c6XOhDS-65" value="" style="shape=flexArrow;endArrow=classic;html=1;rounded=0;width=7.3076923076923075;endSize=5.3307692307692305;endWidth=10.650887573964496;fillColor=#ffcd28;gradientColor=#ffa500;strokeColor=#d79b00;" edge="1" parent="1">
          <mxGeometry width="50" height="50" relative="1" as="geometry">
            <mxPoint x="493.5" y="579.81" as="sourcePoint" />
            <mxPoint x="598.5" y="580" as="targetPoint" />
          </mxGeometry>
        </mxCell>
        <mxCell id="qNZ7FqDkXa0m-c6XOhDS-67" value="Future&lt;br&gt;Development" style="text;html=1;strokeColor=none;fillColor=none;align=center;verticalAlign=middle;whiteSpace=wrap;rounded=0;" vertex="1" parent="1">
          <mxGeometry x="289.25" y="546" width="60" height="30" as="geometry" />
        </mxCell>
        <mxCell id="qNZ7FqDkXa0m-c6XOhDS-68" value="Market &lt;br&gt;Expansion" style="text;html=1;strokeColor=none;fillColor=none;align=center;verticalAlign=middle;whiteSpace=wrap;rounded=0;" vertex="1" parent="1">
          <mxGeometry x="486" y="547" width="110" height="30" as="geometry" />
        </mxCell>
      </root>
    </mxGraphModel>
  </diagram>
</mxfile>
